<?xml version="1.0" encoding="UTF-8" standalone="no"?>
<!DOCTYPE svg PUBLIC "-//W3C//DTD SVG 1.1//EN" "http://www.w3.org/Graphics/SVG/1.1/DTD/svg11.dtd">
<svg width="100%" height="100%" viewBox="0 0 800 800" version="1.1" xmlns="http://www.w3.org/2000/svg" xmlns:xlink="http://www.w3.org/1999/xlink" xml:space="preserve" xmlns:serif="http://www.serif.com/" style="fill-rule:evenodd;clip-rule:evenodd;stroke-linejoin:round;stroke-miterlimit:2;">
    <g id="Page-1">
        <g id="Icon-Set" transform="matrix(1,0,0,1,-10300,-8975)">
            <path id="clock" d="M10950,9400L11000,9400L11000,9350L10950,9350L10950,9400ZM10700,9725C10506.7,9725 10350,9568.3 10350,9375C10350,9181.73 10506.7,9025 10700,9025C10893.3,9025 11050,9181.73 11050,9375C11050,9568.3 10893.3,9725 10700,9725ZM10700,8975C10479.1,8975 10300,9154.1 10300,9375C10300,9595.93 10479.1,9775 10700,9775C10920.9,9775 11100,9595.93 11100,9375C11100,9154.1 10920.9,8975 10700,8975ZM10851.9,9181.83L10886.5,9216.5L10921.1,9181.83L10886.5,9147.18L10851.9,9181.83ZM10844.6,9544.45L10879.9,9579.8L10915.3,9544.45L10879.9,9509.1L10844.6,9544.45ZM10700,9075C10686.2,9075 10675,9086.18 10675,9100L10675,9350.58L10475,9350.58C10461.2,9350.58 10450,9361.8 10450,9375.6C10450,9389.4 10461.2,9400.58 10475,9400.58L10700,9400.58C10713.8,9400.58 10725,9389.4 10725,9375.6L10725,9100C10725,9086.18 10713.8,9075 10700,9075ZM10542.3,9183.08L10507,9147.73L10471.6,9183.08L10507,9218.43L10542.3,9183.08ZM10468.3,9545.8L10502.9,9580.48L10537.5,9545.8L10502.9,9511.12L10468.3,9545.8ZM10675,9675L10725,9675L10725,9625L10675,9625L10675,9675Z"/>
        </g>
        <g transform="matrix(1.16418,0,0,1.16418,336.224,581.612)">
            <circle cx="56.5" cy="78.5" r="33.5"/>
        </g>
        <g transform="matrix(1.16418,0,0,1.16418,138.224,480.612)">
            <circle cx="56.5" cy="78.5" r="33.5"/>
        </g>
        <g transform="matrix(1.16418,0,0,1.16418,138.224,114.612)">
            <circle cx="56.5" cy="78.5" r="33.5"/>
        </g>
        <g transform="matrix(1.16418,0,0,1.16418,520.224,480.612)">
            <circle cx="56.5" cy="78.5" r="33.5"/>
        </g>
        <g transform="matrix(1.16418,0,0,1.16418,610.224,309.612)">
            <circle cx="56.5" cy="78.5" r="33.5"/>
        </g>
        <g transform="matrix(1.16418,0,0,1.16418,520.224,114.612)">
            <circle cx="56.5" cy="78.5" r="33.5"/>
        </g>
    </g>
</svg>
